<svg xmlns="http://www.w3.org/2000/svg" xmlns:xlink="http://www.w3.org/1999/xlink"><defs><style>
    .sprite-symbol-usage {display: none;}
    .sprite-symbol-usage:target {display: inline;}
  </style><symbol viewBox="0 0 12.64 6.03" id="arrow_footer"><path d="M6.32 6.03 0 .77.64 0l5.68 4.73L12 0l.64.77-6.32 5.26z" /></symbol><symbol viewBox="0 0 25.51 49.06" id="arrow_next"><path class="cls-2" d="M25.51 24.53.98 49.06 0 48.08l23.71-23.55L0 .98.98 0l24.53 24.53Z" /><path d="M25.51 24.53.98 49.06 0 48.08l23.71-23.55L0 .98.98 0l24.53 24.53Z" /><path class="cls-1" d="M25.51 24.53.98 49.06 0 48.08l23.71-23.55L0 .98.98 0l24.53 24.53Z" /></symbol><symbol viewBox="0 0 25.51 49.06" id="arrow_prev"><path class="cls-2" d="m0 24.53 24.53 24.53.98-.98L1.8 24.53 25.51.98 24.53 0 0 24.53Z" /><path d="m0 24.53 24.53 24.53.98-.98L1.8 24.53 25.51.98 24.53 0 0 24.53Z" /><path class="cls-1" d="m0 24.53 24.53 24.53.98-.98L1.8 24.53 25.51.98 24.53 0 0 24.53Z" /></symbol><symbol viewBox="0 0 16.85 8.91" id="arrow_select"><path d="M8.41 8.41a1.12 1.12 0 0 1-.72-.26L.91 2.5A1.13 1.13 0 1 1 2.35.76l6.06 5.06L14.47.94a1.16 1.16 0 0 1 1.43 1.82L9.12 8.22a1.12 1.12 0 0 1-.71.19Z" /></symbol><symbol viewBox="0 0 12.64 6.03" id="caret"><path d="m.32.38 6 5 6-5" fill="none" stroke="#000" stroke-miterlimit="20" /></symbol><symbol viewBox="0 0 16.5 16.54" id="close"><path d="m9.43 8.25 6.63-6.63c.29-.34.25-.84-.09-1.13a.79.79 0 0 0-1.04 0L8.3 7.12 1.67.49C1.35.17.84.17.53.49s-.31.82 0 1.13l6.64 6.63-6.64 6.64c-.34.29-.37.79-.09 1.13.29.34.79.37 1.13.09l.09-.09L8.3 9.39l6.63 6.63c.34.29.84.25 1.13-.09a.79.79 0 0 0 0-1.04L9.43 8.26Z" /><path d="m9.43 8.25 6.63-6.63c.29-.34.25-.84-.09-1.13a.79.79 0 0 0-1.04 0L8.3 7.12 1.67.49C1.35.17.84.17.53.49s-.31.82 0 1.13l6.64 6.63-6.64 6.64c-.34.29-.37.79-.09 1.13.29.34.79.37 1.13.09l.09-.09L8.3 9.39l6.63 6.63c.34.29.84.25 1.13-.09a.79.79 0 0 0 0-1.04L9.43 8.26Z" fill="none" stroke="#fff" stroke-miterlimit="20" stroke-width=".5" /></symbol><symbol viewBox="0 0 20 21" id="copy"><path d="M18.599 4.769H5.705c-.791 0-1.433.641-1.433 1.432v12.895c0 .79.642 1.432 1.433 1.432h12.894c.791 0 1.433-.641 1.433-1.432V6.2c0-.79-.642-1.432-1.433-1.432zm0 1.432v12.895H5.705V6.2h12.894" /><path d="M1.407 11.932H-.026V1.903c0-.79.642-1.432 1.433-1.432h10.029v1.432H1.406z" /></symbol><symbol viewBox="0 0 15.54 19.6" id="download"><path d="M7.99 0v16.21M.33 9.38l7.73 6.7 7.14-6.7M15.2 19.1H.33" fill="none" stroke="currentColor" stroke-miterlimit="20" /></symbol><symbol viewBox="0 0 21.71 17.57" id="email"><path d="M21.7 2.48A2.57 2.57 0 0 0 19.14 0H2.57A2.55 2.55 0 0 0 0 2.42a.44.44 0 0 0 0 .25V15a2.57 2.57 0 0 0 2.57 2.57h16.57A2.57 2.57 0 0 0 21.71 15V2.57s-.01-.06-.01-.09ZM2.57 1h16.57a1.57 1.57 0 0 1 1.55 1.33l-9.83 6.88L1 2.33A1.58 1.58 0 0 1 2.57 1Zm16.57 15.57H2.57A1.57 1.57 0 0 1 1 15V3.53l9.57 6.7a.48.48 0 0 0 .29.09.47.47 0 0 0 .28-.09l9.57-6.7V15a1.57 1.57 0 0 1-1.57 1.57Z" /></symbol><symbol viewBox="0 0 8.6 17.69" id="facebook"><path d="M2.19 17.69v-8.3H0V6.4h2.19V3.85C2.19 1.84 3.49 0 6.48 0c1.21 0 2.1.12 2.1.12l-.07 2.79H6.6c-1.08 0-1.25.5-1.25 1.32v2.18h3.24L8.45 9.4h-3.1v8.3H2.19" /></symbol><symbol viewBox="0 0 17.34 15" id="favourite"><path d="M8.67 15 1.31 7.64a4.48 4.48 0 0 1 0-6.33 4.48 4.48 0 0 1 6.33 0l1.03 1.03L9.7 1.31A4.48 4.48 0 0 1 12.87 0a4.474 4.474 0 0 1 4.47 4.47c0 1.19-.47 2.33-1.31 3.16l-7.36 7.36ZM4.48.77c-.99 0-1.92.39-2.62 1.09C1.16 2.55.77 3.5.77 4.48c0 .99.38 1.92 1.09 2.62l6.82 6.82L15.5 7.1c.7-.69 1.09-1.64 1.09-2.62 0-.99-.39-1.92-1.08-2.62-.69-.7-1.64-1.09-2.62-1.08-.99 0-1.92.38-2.62 1.09L8.69 3.45 7.11 1.87C6.42 1.17 5.47.78 4.49.78" /></symbol><symbol viewBox="0 0 18.75 10.94" id="filters"><path d="M6.25 10.16A.78.78 0 0 1 7 9.38h4.69a.78.78 0 0 1 0 1.56H7a.78.78 0 0 1-.78-.78ZM3.13 5.47a.78.78 0 0 1 .78-.78h10.94a.78.78 0 0 1 0 1.56H3.91a.78.78 0 0 1-.78-.78ZM0 .78A.78.78 0 0 1 .78 0H18a.78.78 0 1 1 0 1.56H.78A.78.78 0 0 1 0 .78Z" fill-rule="evenodd" /></symbol><symbol viewBox="0 0 749.77 749.77" id="instagram"><path d="M620.03 174.8v.02c0 24.85-20.15 44.97-44.97 44.97s-44.97-20.15-44.97-44.97 20.15-44.97 44.97-44.97c24.83.02 44.95 20.12 44.97 44.95ZM374.9 499.88c-69.02 0-124.98-55.95-124.98-124.98s55.95-124.98 124.98-124.98 124.98 55.95 124.98 124.98v.02c0 69-55.92 124.92-124.92 124.92h-.02l-.03.03Zm0-317.48c-106.33 0-192.5 86.2-192.5 192.5s86.2 192.5 192.5 192.5 192.5-86.2 192.5-192.5v-.03c0-106.3-86.18-192.5-192.5-192.5h-.03l.03.03Zm0-114.9c100.08 0 112 .5 151.53 2.22 25.08.3 48.93 5.05 71 13.45l-1.42-.48c32.85 12.8 58.35 38.3 70.87 70.3l.3.85c7.9 20.65 12.6 44.52 12.9 69.45v.13c1.77 39.55 2.17 51.43 2.17 151.52s-.47 112-2.3 151.53c-.47 25.1-5.25 48.95-13.63 71.02l.47-1.45c-6.45 16.9-16 31.3-28.07 43.15l-.02.02c-11.82 12.1-26.22 21.65-42.3 27.72l-.8.27c-20.73 7.9-44.68 12.6-69.7 12.9h-.12c-39.8 1.77-51.53 2.17-151.8 2.17s-112.02-.47-151.8-2.3c-25.2-.47-49.15-5.25-71.32-13.63l1.48.47c-16.9-6.35-31.3-15.92-43.05-28.05l-.02-.02c-12.22-11.75-21.83-26.18-27.85-42.33l-.25-.78c-7.88-20.7-12.65-44.62-13.13-69.62v-.2c-1.4-39.38-1.9-51.53-1.9-151.32s.5-112.02 1.9-151.87c.48-25.17 5.23-49.1 13.6-71.25l-.48 1.48c6.18-16.97 15.8-31.42 28.08-43.1l.05-.05c11.7-12.3 26.13-21.88 42.3-27.8l.78-.25c20.57-7.95 44.35-12.73 69.2-13.15h.17c39.83-1.4 51.55-1.88 151.8-1.88l1.37.85Zm0-67.5C273.05 0 260.35.48 220.35 2.25c-32.87.7-64.05 7.05-92.9 18.07l1.9-.62c-26 9.92-48.15 24.65-66.4 43.2l-.02.02A183.273 183.273 0 0 0 20.1 128.1l-.42 1.25C9.28 156.3 2.93 187.5 2.25 220.05v.3C.37 260.35 0 273.05 0 374.9s.48 114.55 2.25 154.55c.7 32.88 7.05 64.05 18.08 92.9l-.62-1.9c19.9 50.52 59.12 89.75 108.35 109.2l1.3.45c26.95 10.38 58.15 16.73 90.7 17.43h.3c40 1.88 52.7 2.25 154.55 2.25s114.55-.47 154.55-2.25c32.88-.72 64.05-7.05 92.9-18.07l-1.9.65c50.52-19.9 89.75-59.12 109.2-108.35l.45-1.3c10.4-26.95 16.73-58.15 17.43-90.7v-.3c1.88-40 2.25-52.7 2.25-154.55s-.47-114.55-2.25-154.55c-.72-32.88-7.05-64.05-18.07-92.9l.65 1.9c-9.95-26-24.65-48.15-43.23-66.4l-.02-.02a183.273 183.273 0 0 0-65.18-42.83l-1.25-.42c-26.95-10.4-58.15-16.75-90.7-17.43h-.3C489.44.38 476.74.01 374.89.01h.03Z" /></symbol><symbol viewBox="0 0 32 32" id="like"><path d="M21.886 5.115a6.376 6.376 0 0 1 6.376 6.376 6.354 6.354 0 0 1-1.964 4.6L16.001 26.44 5.517 15.904a6.35 6.35 0 0 1-1.778-4.413 6.376 6.376 0 0 1 12.262-2.452 6.377 6.377 0 0 1 5.886-3.924zm0-1.066A7.424 7.424 0 0 0 16 6.933a7.42 7.42 0 0 0-5.886-2.884c-4.104 0-7.442 3.339-7.442 7.442 0 1.928.737 3.758 2.075 5.152L16 27.952l11.053-11.108a7.368 7.368 0 0 0 2.275-5.352c0-4.104-3.339-7.442-7.442-7.442z" /></symbol><symbol viewBox="0 0 23 19" id="mail"><path fill="none" stroke="#000" stroke-linecap="round" stroke-linejoin="round" stroke-miterlimit="20" d="M3.071 1.477h16.57c1.14 0 2.072.932 2.072 2.07v12.429c0 1.139-.932 2.07-2.071 2.07H3.072A2.077 2.077 0 0 1 1 15.977V3.548c0-1.14.932-2.071 2.071-2.071z" /><path fill="none" stroke="#000" stroke-linecap="round" stroke-linejoin="round" stroke-miterlimit="20" d="M21.713 3.548v0l-10.357 7.25v0L1 3.547v0" /></symbol><symbol viewBox="0 0 13.96 17.44" id="pinterest"><path d="M4.05 6.67c0-.74.19-1.36.57-1.88.38-.52.85-.78 1.39-.78.46 0 .81.15 1.04.45.23.3.35.67.35 1.11 0 .27-.04.61-.12 1.02-.11.38-.24.85-.41 1.39-.16.52-.29.94-.37 1.27-.14.55-.03 1.02.31 1.41.34.4.78.59 1.33.59.96 0 1.74-.54 2.36-1.62.61-1.08.92-2.38.92-3.91 0-1.17-.38-2.13-1.12-2.87-.75-.74-1.81-1.11-3.17-1.11-1.53 0-2.76.48-3.71 1.45-.94.97-1.41 2.14-1.41 3.5 0 .79.23 1.47.7 2.05.16.14.22.37.16.57-.06.14-.12.41-.2.82-.06.14-.13.23-.22.27-.1.04-.21.05-.31.02-.7-.29-1.27-.83-1.6-1.51C.19 8.2.01 7.38.01 6.45c0-1.28.42-2.52 1.19-3.54.41-.56.9-1.06 1.47-1.49C3.24.98 3.94.64 4.76.38 5.61.12 6.51 0 7.41 0c.96 0 1.85.16 2.68.49.83.33 1.53.76 2.09 1.31.56.55 1 1.18 1.31 1.9.31.72.47 1.47.47 2.23 0 2.05-.52 3.74-1.56 5.08-1.04 1.34-2.37 2.01-4.01 2.01-.53 0-1.06-.12-1.54-.37s-.81-.55-1-.9c-.41 1.58-.65 2.52-.74 2.82-.22.82-.71 1.77-1.47 2.87h-.7c-.16-1.39-.14-2.54.08-3.44l1.35-5.65c-.22-.46-.33-1.02-.33-1.68Z" /></symbol><symbol viewBox="0 0 87 102" id="play_icon"><path d="M87 51 0 102V0l87 51Z" style="fill:#fff" /></symbol><symbol viewBox="0 0 18 18" id="plyr-airplay"><path d="M16 1H2a1 1 0 0 0-1 1v10a1 1 0 0 0 1 1h3v-2H3V3h12v8h-2v2h3a1 1 0 0 0 1-1V2a1 1 0 0 0-1-1Z" /><path d="M4 17h10l-5-6z" /></symbol><symbol viewBox="0 0 18 18" id="plyr-captions-off"><path d="M1 1c-.6 0-1 .4-1 1v11c0 .6.4 1 1 1h4.6l2.7 2.7c.2.2.4.3.7.3.3 0 .5-.1.7-.3l2.7-2.7H17c.6 0 1-.4 1-1V2c0-.6-.4-1-1-1H1Zm4.52 10.15c1.99 0 3.01-1.32 3.28-2.41l-1.29-.39c-.19.66-.78 1.45-1.99 1.45-1.14 0-2.2-.83-2.2-2.34 0-1.61 1.12-2.37 2.18-2.37 1.23 0 1.78.75 1.95 1.43l1.3-.41C8.47 4.96 7.46 3.76 5.5 3.76c-1.9 0-3.61 1.44-3.61 3.7 0 2.26 1.65 3.69 3.63 3.69Zm7.57 0c1.99 0 3.01-1.32 3.28-2.41l-1.29-.39c-.19.66-.78 1.45-1.99 1.45-1.14 0-2.2-.83-2.2-2.34 0-1.61 1.12-2.37 2.18-2.37 1.23 0 1.78.75 1.95 1.43l1.3-.41c-.28-1.15-1.29-2.35-3.25-2.35-1.9 0-3.61 1.44-3.61 3.7 0 2.26 1.65 3.69 3.63 3.69Z" fill-rule="evenodd" fill-opacity=".5" /></symbol><symbol viewBox="0 0 18 18" id="plyr-captions-on"><path d="M1 1c-.6 0-1 .4-1 1v11c0 .6.4 1 1 1h4.6l2.7 2.7c.2.2.4.3.7.3.3 0 .5-.1.7-.3l2.7-2.7H17c.6 0 1-.4 1-1V2c0-.6-.4-1-1-1H1Zm4.52 10.15c1.99 0 3.01-1.32 3.28-2.41l-1.29-.39c-.19.66-.78 1.45-1.99 1.45-1.14 0-2.2-.83-2.2-2.34 0-1.61 1.12-2.37 2.18-2.37 1.23 0 1.78.75 1.95 1.43l1.3-.41C8.47 4.96 7.46 3.76 5.5 3.76c-1.9 0-3.61 1.44-3.61 3.7 0 2.26 1.65 3.69 3.63 3.69Zm7.57 0c1.99 0 3.01-1.32 3.28-2.41l-1.29-.39c-.19.66-.78 1.45-1.99 1.45-1.14 0-2.2-.83-2.2-2.34 0-1.61 1.12-2.37 2.18-2.37 1.23 0 1.78.75 1.95 1.43l1.3-.41c-.28-1.15-1.29-2.35-3.25-2.35-1.9 0-3.61 1.44-3.61 3.7 0 2.26 1.65 3.69 3.63 3.69Z" fill-rule="evenodd" /></symbol><symbol viewBox="0 0 18 18" id="plyr-download"><path d="M9 13c.3 0 .5-.1.7-.3L15.4 7 14 5.6l-4 4V1H8v8.6l-4-4L2.6 7l5.7 5.7c.2.2.4.3.7.3ZM2 15h14v2H2z" /></symbol><symbol viewBox="0 0 18 18" id="plyr-enter-fullscreen"><path d="M10 3h3.6l-4 4L11 8.4l4-4V8h2V1h-7zM7 9.6l-4 4V10H1v7h7v-2H4.4l4-4z" /></symbol><symbol viewBox="0 0 18 18" id="plyr-exit-fullscreen"><path d="M1 12h3.6l-4 4L2 17.4l4-4V17h2v-7H1zM16 .6l-4 4V1h-2v7h7V6h-3.6l4-4z" /></symbol><symbol viewBox="0 0 18 18" id="plyr-fast-forward"><path d="M7.875 7.171 0 1v16l7.875-6.171V17L18 9 7.875 1z" /></symbol><symbol viewBox="0 0 18 18" id="plyr-logo-vimeo"><path d="M17 5.3c-.1 1.6-1.2 3.7-3.3 6.4-2.2 2.8-4 4.2-5.5 4.2-.9 0-1.7-.9-2.4-2.6C5 10.9 4.4 6 3 6c-.1 0-.5.3-1.2.8l-.8-1c.8-.7 3.5-3.4 4.7-3.5 1.2-.1 2 .7 2.3 2.5.3 2 .8 6.1 1.8 6.1.9 0 2.5-3.4 2.6-4 .1-.9-.3-1.9-2.3-1.1.8-2.6 2.3-3.8 4.5-3.8 1.7.1 2.5 1.2 2.4 3.3Z" /></symbol><symbol viewBox="0 0 18 18" id="plyr-logo-youtube"><path d="M16.8 5.8c-.2-1.3-.8-2.2-2.2-2.4C12.4 3 9 3 9 3s-3.4 0-5.6.4C2 3.6 1.3 4.5 1.2 5.8 1 7.1 1 9 1 9s0 1.9.2 3.2c.2 1.3.8 2.2 2.2 2.4C5.6 15 9 15 9 15s3.4 0 5.6-.4c1.4-.3 2-1.1 2.2-2.4.2-1.3.2-3.2.2-3.2s0-1.9-.2-3.2ZM7 12V6l5 3-5 3Z" /></symbol><symbol viewBox="0 0 18 18" id="plyr-muted"><path d="m12.4 12.5 2.1-2.1 2.1 2.1 1.4-1.4L15.9 9 18 6.9l-1.4-1.4-2.1 2.1-2.1-2.1L11 6.9 13.1 9 11 11.1zM3.786 6.008H.714C.286 6.008 0 6.31 0 6.76v4.512c0 .452.286.752.714.752h3.072l4.071 3.858c.5.3 1.143 0 1.143-.602V2.752c0-.601-.643-.977-1.143-.601L3.786 6.008Z" /></symbol><symbol viewBox="0 0 18 18" id="plyr-pause"><path d="M6 1H3c-.6 0-1 .4-1 1v14c0 .6.4 1 1 1h3c.6 0 1-.4 1-1V2c0-.6-.4-1-1-1ZM12 1c-.6 0-1 .4-1 1v14c0 .6.4 1 1 1h3c.6 0 1-.4 1-1V2c0-.6-.4-1-1-1h-3Z" /></symbol><symbol viewBox="0 0 18 18" id="plyr-pip"><path d="M13.293 3.293 7.022 9.564l1.414 1.414 6.271-6.271L17 7V1h-6z" /><path d="M13 15H3V5h5V3H2a1 1 0 0 0-1 1v12a1 1 0 0 0 1 1h12a1 1 0 0 0 1-1v-6h-2v5Z" /></symbol><symbol viewBox="0 0 87 102" id="plyr-play"><path class="cls-1" d="M87 51 0 102V0l87 51Z" /></symbol><symbol viewBox="0 0 18 18" id="plyr-restart"><path d="m9.7 1.2.7 6.4 2.1-2.1c1.9 1.9 1.9 5.1 0 7-.9 1-2.2 1.5-3.5 1.5-1.3 0-2.6-.5-3.5-1.5-1.9-1.9-1.9-5.1 0-7 .6-.6 1.4-1.1 2.3-1.3l-.6-1.9C6 2.6 4.9 3.2 4 4.1 1.3 6.8 1.3 11.2 4 14c1.3 1.3 3.1 2 4.9 2 1.9 0 3.6-.7 4.9-2 2.7-2.7 2.7-7.1 0-9.9L16 1.9l-6.3-.7Z" /></symbol><symbol viewBox="0 0 18 18" id="plyr-rewind"><path d="M10.125 1 0 9l10.125 8v-6.171L18 17V1l-7.875 6.171z" /></symbol><symbol viewBox="0 0 18 18" id="plyr-settings"><path d="M16.135 7.784a2 2 0 0 1-1.23-2.969c.322-.536.225-.998-.094-1.316l-.31-.31c-.318-.318-.78-.415-1.316-.094a2 2 0 0 1-2.969-1.23C10.065 1.258 9.669 1 9.219 1h-.438c-.45 0-.845.258-.997.865a2 2 0 0 1-2.969 1.23c-.536-.322-.999-.225-1.317.093l-.31.31c-.318.318-.415.781-.093 1.317a2 2 0 0 1-1.23 2.969C1.26 7.935 1 8.33 1 8.781v.438c0 .45.258.845.865.997a2 2 0 0 1 1.23 2.969c-.322.536-.225.998.094 1.316l.31.31c.319.319.782.415 1.316.094a2 2 0 0 1 2.969 1.23c.151.607.547.865.997.865h.438c.45 0 .845-.258.997-.865a2 2 0 0 1 2.969-1.23c.535.321.997.225 1.316-.094l.31-.31c.318-.318.415-.781.094-1.316a2 2 0 0 1 1.23-2.969c.607-.151.865-.547.865-.997v-.438c0-.451-.26-.846-.865-.997ZM9 12a3 3 0 1 1 0-6 3 3 0 0 1 0 6Z" /></symbol><symbol viewBox="0 0 18 18" id="plyr-volume"><path d="M15.6 3.3c-.4-.4-1-.4-1.4 0-.4.4-.4 1 0 1.4C15.4 5.9 16 7.4 16 9c0 1.6-.6 3.1-1.8 4.3-.4.4-.4 1 0 1.4.2.2.5.3.7.3.3 0 .5-.1.7-.3C17.1 13.2 18 11.2 18 9s-.9-4.2-2.4-5.7Z" /><path d="M11.282 5.282a.909.909 0 0 0 0 1.316c.735.735.995 1.458.995 2.402 0 .936-.425 1.917-.995 2.487a.909.909 0 0 0 0 1.316c.145.145.636.262 1.018.156a.725.725 0 0 0 .298-.156C13.773 11.733 14.13 10.16 14.13 9c0-.17-.002-.34-.011-.51-.053-.992-.319-2.005-1.522-3.208a.909.909 0 0 0-1.316 0ZM3.786 6.008H.714C.286 6.008 0 6.31 0 6.76v4.512c0 .452.286.752.714.752h3.072l4.071 3.858c.5.3 1.143 0 1.143-.602V2.752c0-.601-.643-.977-1.143-.601L3.786 6.008Z" /></symbol><symbol viewBox="0 0 15 15" id="search"><defs></defs><g clip-path="url(#search_a)"><path d="M6.62 12.73c3.38.04 6.15-2.66 6.2-6.04A6.127 6.127 0 0 0 6.78.49h-.16A6.136 6.136 0 0 0 .58 6.7c.04 3.32 2.72 6 6.04 6.04Z" fill="none" stroke="#000" stroke-miterlimit="20" /></g><g clip-path="url(#search_b)"><path d="m11.07 11.07 3.58 3.58" fill="none" stroke="#000" stroke-miterlimit="20" /></g></symbol><clipPath id="search_a"><path fill="none" d="M0 0h15v15H0z" /></clipPath><clipPath id="search_b"><path fill="none" d="M0 0h15v15H0z" /></clipPath><symbol viewBox="0 0 15.61 15.61" id="share"><path d="M13.17 10.73a2.42 2.42 0 0 0-1.91.94L4.79 8.43a2.58 2.58 0 0 0 .09-.62 2.59 2.59 0 0 0-.09-.63l6.47-3.24a2.42 2.42 0 0 0 1.91.94 2.44 2.44 0 1 0-2.44-2.44 2.59 2.59 0 0 0 .09.63L4.35 6.31a2.43 2.43 0 1 0 0 3l6.47 3.23a2.59 2.59 0 0 0-.09.63 2.44 2.44 0 0 0 2.44 2.44 2.44 2.44 0 0 0 0-4.88Zm0-9.76a1.47 1.47 0 1 1-1.46 1.47A1.47 1.47 0 0 1 13.17 1ZM2.44 9.27A1.46 1.46 0 0 1 1 7.81a1.46 1.46 0 1 1 1.44 1.46Zm10.73 5.36a1.47 1.47 0 1 1 1.47-1.47 1.47 1.47 0 0 1-1.47 1.48Z" /></symbol><symbol viewBox="0 0 18.22 18.22" id="target"><path d="M9.11 5.46a3.65 3.65 0 1 0 3.64 3.65 3.66 3.66 0 0 0-3.64-3.65Z" /><path d="M16.33 8.2A7.29 7.29 0 0 0 10 1.89V0H8.2v1.88A7.3 7.3 0 0 0 1.89 8.2H0V10h1.88a7.3 7.3 0 0 0 6.32 6.33v1.89H10v-1.89A7.28 7.28 0 0 0 16.33 10h1.89V8.2Zm-7.22 6.37a5.47 5.47 0 1 1 5.46-5.46 5.46 5.46 0 0 1-5.46 5.46Z" /></symbol><symbol viewBox="0 0 26.4 26.39" id="tour"><path d="m12.33 18.7 1.81 1.81c.21.22.2.57-.02.78-.21.2-.54.2-.76 0l-2.2-2.2a.562.562 0 0 1 0-.78l2.2-2.2c.21-.21.56-.21.78 0s.21.56 0 .78l-1.81 1.81ZM18.7 14.07l1.81-1.81c.22-.21.57-.2.78.02.2.21.2.54 0 .76l-2.2 2.2c-.21.21-.56.21-.78 0l-2.2-2.2c-.21-.22-.2-.57.02-.78.21-.2.54-.2.76 0l1.81 1.81Z" /><path d="M8.26 17.7c-2.57-.49-4.69-1.34-5.96-2.42-.74-.63-1.19-1.33-1.19-2.09 0-1.05.84-1.98 2.17-2.77 2.24-1.33 5.85-2.18 9.93-2.18s7.69.85 9.93 2.18c1.33.79 2.17 1.72 2.17 2.77s-.84 1.98-2.17 2.77c-2.24 1.33-5.85 2.17-9.93 2.17h-1.65c-.3 0-.55.25-.55.55s.25.55.55.55h1.65c4.3 0 8.12-.93 10.49-2.33 1.74-1.03 2.71-2.34 2.71-3.72s-.97-2.69-2.71-3.72c-2.37-1.4-6.18-2.33-10.49-2.33s-8.12.93-10.49 2.33C.98 10.49.01 11.8.01 13.18c0 1.05.55 2.05 1.58 2.92 1.39 1.17 3.67 2.13 6.47 2.66.3.06.59-.14.64-.44s-.14-.59-.44-.64Z" /><path d="M17.7 18.14c-.49 2.57-1.34 4.69-2.42 5.96-.63.75-1.33 1.19-2.09 1.19-1.05 0-1.98-.84-2.77-2.17-1.33-2.24-2.18-5.85-2.18-9.93s.85-7.69 2.18-9.93c.79-1.33 1.72-2.17 2.77-2.17s1.98.84 2.77 2.17c1.33 2.24 2.17 5.85 2.17 9.93v1.65c0 .3.25.55.55.55s.55-.25.55-.55v-1.65c0-4.3-.93-8.12-2.33-10.49C15.87.96 14.56-.01 13.18-.01S10.49.96 9.46 2.7c-1.4 2.37-2.33 6.18-2.33 10.49s.93 8.12 2.33 10.49c1.03 1.74 2.34 2.71 3.72 2.71 1.05 0 2.05-.55 2.93-1.58 1.17-1.39 2.13-3.67 2.66-6.47.05-.3-.16-.58-.46-.63a.548.548 0 0 0-.62.42Z" /></symbol><symbol viewBox="0 0 18 18" id="whatsapp"><path d="M9.152 0a8.52 8.52 0 0 1 3.401.698A8.85 8.85 0 0 1 15.35 2.57a8.869 8.869 0 0 1 1.872 2.796 8.505 8.505 0 0 1 .698 3.401c0 1.187-.233 2.32-.698 3.401a8.845 8.845 0 0 1-1.872 2.797 8.865 8.865 0 0 1-2.797 1.872 8.515 8.515 0 0 1-3.4.698 8.634 8.634 0 0 1-4.245-1.093L.059 18l1.582-4.709A8.56 8.56 0 0 1 .385 8.767c0-1.185.232-2.32.698-3.4A8.85 8.85 0 0 1 2.955 2.57 8.869 8.869 0 0 1 5.75.698 8.505 8.505 0 0 1 9.152 0zm0 16.07c.985 0 1.928-.194 2.832-.582a7.356 7.356 0 0 0 2.331-1.558 7.376 7.376 0 0 0 1.558-2.331 7.094 7.094 0 0 0 .582-2.832c0-.984-.195-1.928-.582-2.831a7.353 7.353 0 0 0-1.558-2.331 7.372 7.372 0 0 0-2.331-1.558 7.103 7.103 0 0 0-2.832-.582c-.985 0-1.929.194-2.831.582A7.372 7.372 0 0 0 3.99 3.605a7.353 7.353 0 0 0-1.559 2.33 7.118 7.118 0 0 0-.581 2.832c0 1.574.465 3 1.395 4.28l-.918 2.709 2.814-.896a7.15 7.15 0 0 0 4.011 1.21zm2.36-6.163c.101 0 .479.17 1.134.512.656.34 1.003.546 1.041.616a.493.493 0 0 1 .023.174c0 .255-.066.55-.198.884-.124.302-.399.556-.825.761-.426.206-.821.309-1.186.309-.442 0-1.178-.24-2.21-.721a6.63 6.63 0 0 1-1.976-1.372c-.558-.566-1.132-1.283-1.72-2.152-.559-.829-.834-1.58-.826-2.255V6.57c.023-.706.31-1.318.86-1.838a.88.88 0 0 1 .605-.255c.046 0 .116.005.21.017.092.012.166.018.22.018.147 0 .25.025.308.075.058.05.118.157.18.32.062.155.19.496.384 1.023.193.527.29.818.29.873 0 .162-.133.385-.4.668-.268.284-.402.464-.402.54 0 .055.02.113.058.175.264.565.659 1.096 1.186 1.593.434.41 1.02.802 1.756 1.174a.515.515 0 0 0 .255.082c.117 0 .326-.188.628-.564.303-.376.504-.564.605-.564z" /></symbol><symbol viewBox="0 0 14.74 10.32" id="youtube"><path d="m5.9 2.95 2.95 2.21L5.9 7.37V2.95ZM0 2.21C0 .99.99 0 2.21 0h10.32c1.22 0 2.21.99 2.21 2.21v5.9c0 1.22-.99 2.21-2.21 2.21H2.21A2.21 2.21 0 0 1 0 8.11v-5.9Zm1.47 0V8.1c0 .41.33.74.74.74h10.32c.41 0 .74-.33.74-.74V2.21c0-.41-.33-.74-.74-.74H2.21c-.41 0-.74.33-.74.74Z" /></symbol></defs><use id="arrow_footer-usage" xlink:href="#arrow_footer" class="sprite-symbol-usage" /><use id="arrow_next-usage" xlink:href="#arrow_next" class="sprite-symbol-usage" /><use id="arrow_prev-usage" xlink:href="#arrow_prev" class="sprite-symbol-usage" /><use id="arrow_select-usage" xlink:href="#arrow_select" class="sprite-symbol-usage" /><use id="caret-usage" xlink:href="#caret" class="sprite-symbol-usage" /><use id="close-usage" xlink:href="#close" class="sprite-symbol-usage" /><use id="copy-usage" xlink:href="#copy" class="sprite-symbol-usage" /><use id="download-usage" xlink:href="#download" class="sprite-symbol-usage" /><use id="email-usage" xlink:href="#email" class="sprite-symbol-usage" /><use id="facebook-usage" xlink:href="#facebook" class="sprite-symbol-usage" /><use id="favourite-usage" xlink:href="#favourite" class="sprite-symbol-usage" /><use id="filters-usage" xlink:href="#filters" class="sprite-symbol-usage" /><use id="instagram-usage" xlink:href="#instagram" class="sprite-symbol-usage" /><use id="like-usage" xlink:href="#like" class="sprite-symbol-usage" /><use id="mail-usage" xlink:href="#mail" class="sprite-symbol-usage" /><use id="pinterest-usage" xlink:href="#pinterest" class="sprite-symbol-usage" /><use id="play_icon-usage" xlink:href="#play_icon" class="sprite-symbol-usage" /><use id="plyr-airplay-usage" xlink:href="#plyr-airplay" class="sprite-symbol-usage" /><use id="plyr-captions-off-usage" xlink:href="#plyr-captions-off" class="sprite-symbol-usage" /><use id="plyr-captions-on-usage" xlink:href="#plyr-captions-on" class="sprite-symbol-usage" /><use id="plyr-download-usage" xlink:href="#plyr-download" class="sprite-symbol-usage" /><use id="plyr-enter-fullscreen-usage" xlink:href="#plyr-enter-fullscreen" class="sprite-symbol-usage" /><use id="plyr-exit-fullscreen-usage" xlink:href="#plyr-exit-fullscreen" class="sprite-symbol-usage" /><use id="plyr-fast-forward-usage" xlink:href="#plyr-fast-forward" class="sprite-symbol-usage" /><use id="plyr-logo-vimeo-usage" xlink:href="#plyr-logo-vimeo" class="sprite-symbol-usage" /><use id="plyr-logo-youtube-usage" xlink:href="#plyr-logo-youtube" class="sprite-symbol-usage" /><use id="plyr-muted-usage" xlink:href="#plyr-muted" class="sprite-symbol-usage" /><use id="plyr-pause-usage" xlink:href="#plyr-pause" class="sprite-symbol-usage" /><use id="plyr-pip-usage" xlink:href="#plyr-pip" class="sprite-symbol-usage" /><use id="plyr-play-usage" xlink:href="#plyr-play" class="sprite-symbol-usage" /><use id="plyr-restart-usage" xlink:href="#plyr-restart" class="sprite-symbol-usage" /><use id="plyr-rewind-usage" xlink:href="#plyr-rewind" class="sprite-symbol-usage" /><use id="plyr-settings-usage" xlink:href="#plyr-settings" class="sprite-symbol-usage" /><use id="plyr-volume-usage" xlink:href="#plyr-volume" class="sprite-symbol-usage" /><use id="search-usage" xlink:href="#search" class="sprite-symbol-usage" /><use id="share-usage" xlink:href="#share" class="sprite-symbol-usage" /><use id="target-usage" xlink:href="#target" class="sprite-symbol-usage" /><use id="tour-usage" xlink:href="#tour" class="sprite-symbol-usage" /><use id="whatsapp-usage" xlink:href="#whatsapp" class="sprite-symbol-usage" /><use id="youtube-usage" xlink:href="#youtube" class="sprite-symbol-usage" /></svg>