<svg xmlns="http://www.w3.org/2000/svg" width="443" height="45" viewBox="0 0 443 45"><g><g clip-path="url(#clip-5ff80911-70c6-4eab-a425-8037cf28c00c)"><path fill="#fff" d="M105.67 20.52h-8.442c-.015 0-.34-.008-.34-.507l.04-1.3v-7.446l-.04-5.104v-1.34c0-2.468 1.507-2.657 1.968-2.657l.096.001 2.349-.213h3.528c.02 0 2.008.031 3.971 1.387 3.282 2.265 3.972 6.425 3.972 9.516 0 .019-.096 1.94-1.019 3.836-.846 1.746-2.59 3.828-6.083 3.828m40.794 0h-8.442c-.013 0-.339-.01-.339-.508l.042-1.3v-7.446l-.042-5.104v-1.34c0-2.468 1.507-2.657 1.972-2.657l.094.001 2.348-.213h3.525c.022 0 2.01.031 3.976 1.387 3.279 2.265 3.967 6.425 3.967 9.516 0 .019-.093 1.94-1.014 3.836-.85 1.746-2.594 3.828-6.087 3.828m33.367-17.662l7.138-.758.016-.002.007-.01c.014-.015.322-.326.23-.55-.052-.125-.223-.19-.508-.19h-26.738c-.286 0-.459.065-.512.19-.09.224.22.537.233.55l.01.01 7.149.76c2.29.246 2.07 2.807 2.068 2.837v33.85c.003.025.221 2.584-2.068 2.833l-3.758.4-.77.022c-1.1-.027-1.949-.351-2.526-.963-.822-.868-.797-2.03-.797-2.042V31.68c0-4.823-2.59-7.356-4.767-8.636-2.292-1.348-4.618-1.618-4.754-1.632-.066-.028-.188-.104-.177-.166.011-.074.192-.251 1.6-.347.024-.002 2.535-.227 5.012-1.603 2.289-1.267 5.019-3.799 5.015-8.67 0-.024-.21-2.385-2.17-4.713-1.15-1.367-2.668-2.455-4.514-3.235-2.302-.976-5.124-1.47-8.388-1.47h-24.724l-.012.002c-.201.07-.293.146-.287.234.01.18.454.283.547.306l4.938.447s.03-.003.087-.003c.463 0 1.97.193 1.97 2.685l.002 4.08-.017.122v30.465c.003.026.223 2.585-2.065 2.834l-3.733.396-.88.026c-1.1-.027-1.953-.351-2.529-.963-.817-.87-.795-2.03-.795-2.042V31.68c0-4.823-2.59-7.356-4.762-8.636-2.297-1.348-4.625-1.619-4.758-1.632-.066-.028-.19-.104-.177-.166.01-.074.188-.251 1.597-.347.025-.002 2.535-.227 5.013-1.603 2.29-1.268 5.018-3.799 5.018-8.67 0-.024-.212-2.385-2.172-4.713-1.151-1.367-2.667-2.455-4.513-3.235-2.304-.976-5.126-1.47-8.387-1.47H69.268c-1.17 0-1.335.145-1.357.254-.033.159.274.3.337.325l.015.004c2.523 0 4.545.76 6.018 2.256 2.587 2.637 2.567 6.71 2.567 6.753V28.58c0 13.917-9.83 14.622-11.803 14.622-.232 0-.363-.008-.368-.008-2.573 0-4.68-.865-6.261-2.573-3.819-4.122-3.323-11.878-3.316-11.957V4.878c0-2.492 1.506-2.685 1.97-2.685.054 0 .085.003.095.003l4.928-.447.014-.005c.022-.012.245-.12.215-.256-.026-.12-.233-.28-1.704-.28H.52v18.297c0 .188.093.54.452.546.008.002.018.006.028.006.09 0 .223-.096.349-.54.096-.34.082-.364.066-.383l-.016-.016H1.372c.12-.774.748-4.63 2.117-8.44C4.384 8.19 5.416 6.21 6.555 4.79c1.422-1.77 3.014-2.668 4.731-2.668.093 0 .184.001.277.007h4.077v37.417c.003.026.22 2.585-2.065 2.834l-7.14.76-.013.003-.01.009c-.013.013-.32.326-.23.548.052.128.224.193.51.193h26.739c.284 0 .455-.065.51-.193.088-.222-.218-.535-.23-.548l-.012-.01-7.153-.762c-2.286-.249-2.067-2.808-2.065-2.837V2.128h4.08c1.825-.097 3.512.797 5.005 2.661 1.14 1.42 2.17 3.4 3.067 5.89 1.37 3.81 1.999 7.665 2.116 8.44h-.009l-.023.002-.013.013c-.013.02-.03.043.065.382.128.445.263.54.35.54a.09.09 0 0 0 .03-.005c.357-.005.45-.358.45-.546V1.76l4.81.436s.034-.003.09-.003c.46 0 1.97.193 1.97 2.685v23.587c-.004.06-.242 6.081 4.052 10.616 3.196 3.381 8.035 5.091 14.38 5.091h.022c.347 0 3.48-.056 6.558-2.008 1.784-1.132 3.202-2.684 4.218-4.617 1.26-2.393 1.897-5.382 1.897-8.882v-15.67c0-4.288.902-7.377 2.682-9.184a5.658 5.658 0 0 1 4.05-1.706c.418 0 .682.049.692.049.683 0 1.249.232 1.687.686 1.081 1.13 1.02 3.285 1.02 3.31v33.395c.002.026.221 2.585-2.067 2.834l-7.141.76-.01.003-.013.009c-.012.013-.32.326-.23.548.053.129.226.193.51.193h26.74c.285 0 .455-.064.507-.193.093-.222-.215-.535-.229-.548l-.009-.01-7.152-.762c-2.289-.249-2.069-2.808-2.067-2.837V22.458l-.041-.248c0-.75.633-.808.827-.808l.059.001h7.808c.015 0 1.267.078 2.5 1.21 1.142 1.047 2.505 3.233 2.505 7.714v7.27c0 .016.029 1.593.779 3.144 1.259 2.604 3.536 3.15 5.224 3.15h29.93c.285 0 .455-.063.51-.192.09-.222-.219-.535-.231-.548l-.008-.01-7.157-.762c-2.286-.249-2.066-2.808-2.064-2.837V22.458l-.042-.248c0-.75.632-.808.828-.808l.058.001h7.809c.014 0 1.267.078 2.502 1.21 1.141 1.047 2.503 3.233 2.503 7.714v7.27c0 .016.03 1.593.78 3.144 1.26 2.604 3.535 3.15 5.223 3.15h29.846c.285 0 .455-.063.507-.192.093-.222-.215-.535-.229-.548l-.008-.01-7.153-.762c-2.287-.249-2.069-2.808-2.067-2.837V5.692c-.002-.026-.22-2.587 2.067-2.833"/></g><g clip-path="url(#clip-5ff80911-70c6-4eab-a425-8037cf28c00c)"><path fill="#fff" d="M357.553 43.091l-7.153-.762c-2.287-.249-2.155-2.813-2.154-2.842l-.102-33.87c-.002-.026-.194-2.732 2.256-2.809l7.137-.759c.076-.016.222-.07.263-.38.042-.31-.327-.376-.327-.376h-27.018c-.286 0-.46.13-.478.264-.052.435.488.535.488.535l6.873.712c2.287.245 2.068 2.806 2.066 2.832v33.85c.002.03.22 2.588-2.066 2.838l-7.153.763-.01.008c-.013.014-.32.327-.228.549.052.129.222.193.508.193h13.301v.004h13.526c.286 0 .457-.064.508-.193.093-.222-.215-.534-.229-.548z"/></g><g clip-path="url(#clip-5ff80911-70c6-4eab-a425-8037cf28c00c)"><path fill="#fff" d="M400.02 22.732c-.028-.21-.659-.284-.659-.284l-19.431.006s-1.108-.03-1.196.273c-.091.31.42.423.42.423 3.001.142 6.294.235 6.256 5.628-.03 4.151.32 8.622-2.747 11.88-1.916 2.043-4.849 2.97-7.594 2.938-10.082-.118-11.113-13.12-11.113-21.168 0-8.24 1.745-20.86 11.56-21.03 9.068-.157 14.171 8.388 14.94 16.01 0 0 .118.292.332.182.197-.102.183-.995.183-.995s.005-15.304 0-15.671c-.006-.367-.272-.395-.272-.395-.26 0-.247.284-.247.284-.111.457-.036 4.696-2.203 4.19-1.13-.264-3.159-1.582-4.053-2.158-2.555-1.66-5.684-2.49-8.75-2.49-11.434 0-20.631 11.305-20.631 22.292 0 10.6 8.814 21.971 19.992 21.971 2.682 0 5.557-.64 7.856-1.98.959-.51 1.725-1.086 2.555-1.789.894-.766 2.638-2.407 3.768-2.619 3.252-.608 3.364 4.592 3.514 6.005.063.212.157.3.344.3.287 0 .302-1.021.302-1.021l-.008-14.736c0-1.023 0-2.427.383-3.386 1.28-1.993 4.244-2.14 6.096-2.268.144-.01.43-.183.402-.392"/></g><g clip-path="url(#clip-5ff80911-70c6-4eab-a425-8037cf28c00c)"><path fill="#fff" d="M441.624.882h-16.948c-.908.017-.847.293-.847.293s.064.255 1.075.3c1.01.045 4.344.065 6.252 2.939 1.908 2.874 1.59 9.524 1.59 9.524V32.85a.259.259 0 0 1-.472.148l-22.185-31.95a.262.262 0 0 0-.213-.11H396.86s-.68-.026-.862.2c-.182.228.463.31.708.327.245.018 4.392.052 6.473 3.235 0 0 1.909 2.694 1.74 8.996-.168 6.3 0 20.398 0 20.398s-.104 5.059-3.523 7.526a1.555 1.555 0 0 1-.053.037c-.067.049-1.883 1.23-4.322 1.28 0 0-.994-.078-1.073.34-.078.42 3.01.289 3.01.289H413.8s.5.014.634-.126c.135-.139.118-.376-.152-.446 0 0-.106-.06-.436-.036-.329.023-1.998-.005-2.963-.381-.964-.377-3.595-1.644-4.711-5.365 0 0-.528-1.681-.574-3.42V10.875a.26.26 0 0 1 .472-.148l23.196 33.215a.757.757 0 0 0 .62.324h3.386c.144 0 .26-.115.26-.259V15.471s-.308-5.849.64-8.666c.946-2.817 2.889-4.161 2.889-4.161 1.774-1.267 4.726-1.183 4.726-1.183s.571 0 .616-.278c.044-.278-.778-.3-.778-.3"/></g><g clip-path="url(#clip-5ff80911-70c6-4eab-a425-8037cf28c00c)"><path fill="#fff" d="M330.765 30.608c0-3.45-1.533-6.77-4.28-8.88-2.747-2.107-5.165-3.167-8.422-4.125l-5.801-1.588c-3.832-1.086-8.578-1.89-8.578-6.743 0-4.92 4.052-7.608 8.524-7.608 4.024 0 7.255 1.487 9.742 4.607 4.463 5.603 4.758 11.473 4.758 11.473.014.623.11.817.388.817.277 0 .26-1.514.26-1.514L327.343.834s-.014-.2-.04-.389c-.027-.188-.108-.445-.338-.445-.23 0-.23.43-.23.43v.56c-.126 1.197-.518 3.979-1.86 3.979-.575 0-1.967-.868-2.415-1.189-3.32-1.978-6.387-3.256-10.282-3.256-6.899 0-14.5 5.046-14.5 12.519 0 3.13 1.598 6.26 4.089 8.176 2.555 1.98 6.642 3.065 9.708 3.895l5.11 1.342c4.343 1.15 8.504 2.526 8.504 7.765 0 5.548-4.23 9.177-9.382 9.543.142-.006-1.495-.003-2.459-.108-4-.43-7.611-2.445-10.099-5.566-4.463-5.602-4.975-11.396-4.975-11.396-.014-.625-.111-.819-.388-.819-.278 0-.262 1.516-.262 1.516l.014 16.213s.013.2.041.389c.027.188.108.445.337.445.23 0 .23-.43.23-.43v-.56c.126-1.198.519-3.98 1.86-3.98.575 0 1.967.869 2.414 1.19 3.322 1.978 7.174 3.838 11.065 4.051 1.024.056 1.409.111 2.242.068v-.01c7.606-.354 15.038-6.117 15.038-14.16"/></g><g clip-path="url(#clip-5ff80911-70c6-4eab-a425-8037cf28c00c)"><path fill="#fff" d="M244.852 36.71c-2.3 4.983-6.898 6.132-12.008 6.132-5.046 0-5.784-.18-5.784-5.483l.06-30.022c0-5.174.87-5.052 5.661-5.052 4.534 0 9.069 1.149 11.496 5.3 2.3 3.897 2.81 10.795 2.81 15.203 0 4.278-.383 9.962-2.235 13.923m3.385-30.404c-4.983-4.342-10.155-5.045-16.542-5.045l-20.055.028s-.663-.04-.66.248c0 .278.66.363.66.363 1.404.127 2.996.251 4.434.365 2.77.453 2.462.909 2.59 5.256v30.084c0 2.49.167 4.987-2.55 5.255-1.75.17-3.07.237-4.475.365 0 0-.787.064-.802.366-.015.303.802.273.802.273h19.608c7.09 0 12.519-.511 17.884-5.558 4.216-4.023 6.451-9.708 6.451-15.52 0-6.323-2.49-12.327-7.345-16.48"/></g><g clip-path="url(#clip-5ff80911-70c6-4eab-a425-8037cf28c00c)"><path fill="#fff" d="M292.256 26.865c-.384.038-.345.48-.345.48-.02.826-.23 2.42-.23 2.42-.327 2.996-2.71 6.55-2.71 6.55s-2.438 3.591-5.55 5.244c-3.111 1.651-7.471 1.575-7.471 1.575s-1.786.038-4.38-.135c-2.592-.173-2.515-3.323-2.515-3.323V21.7c2.247-.134 4.167.21 4.167.21 2.651.462 4.4 2.056 4.4 2.056s1.722 1.64 2.154 3.34c.43 1.7.347 2.574.382 2.801.036.227.049.562.348.539.3-.024.282-.659.282-.659V19.365s.017-6.337 0-6.798c-.015-.462-.206-.51-.206-.51s-.366-.112-.382.414c-.016.525-.144 1.608-.144 1.608s-.206 3.009-2.865 4.983c-2.658 1.975-5.827 1.926-5.827 1.926h-2.308V10.37l.092-4.603s.147-1.86 1.086-2.386c.939-.525 2.913-.637 2.913-.637s6.209-.573 9.41.955c3.2 1.53 4.17 2.819 5.38 4.602 1.21 1.783 2.07 4.346 2.389 5.333.318.987.63 3.259.63 3.259s.019.548.31.544c.29-.005.267-.526.267-.526V1.578h-37.816c-.978.01-.807.315-.807.315.073.415 3.023.524 3.023.524s2.444.062 3.636.489c1.192.428 1.15 2.293 1.15 2.293V36.372s.058 3.15-.288 4.745c-.346 1.594-1.171 1.805-1.613 1.958-.442.154-4.38.404-4.38.404s-1.612 0-1.612.307.614.346.614.346l38.644-.039c.288 0 .307-.25.307-.25l.134-16.132c.058-.827-.269-.846-.269-.846"/></g></g></svg>