<?xml version="1.0" encoding="UTF-8"?>
<svg id="a" data-name="Шар 1" xmlns="http://www.w3.org/2000/svg" xmlns:xlink="http://www.w3.org/1999/xlink" viewBox="0 0 216.47 21.94">
  <defs>
    <clipPath id="b">
      <rect x="0" y="0" width="216.47" height="21.94" fill="none"/>
    </clipPath>
    <clipPath id="c">
      <rect x="0" y="0" width="216.47" height="21.94" fill="none"/>
    </clipPath>
    <clipPath id="d">
      <rect x="0" y="0" width="216.47" height="21.94" fill="none"/>
    </clipPath>
    <clipPath id="e">
      <rect x="0" y="0" width="216.47" height="21.94" fill="none"/>
    </clipPath>
    <clipPath id="f">
      <rect x="0" y="0" width="216.47" height="21.94" fill="none"/>
    </clipPath>
    <clipPath id="g">
      <rect x="0" y="0" width="216.47" height="21.94" fill="none"/>
    </clipPath>
    <clipPath id="h">
      <rect x="0" y="0" width="216.47" height="21.94" fill="none"/>
    </clipPath>
  </defs>
  <g clip-path="url(#b)">
    <path d="M51.51,10.05h-4.14s-.17,0-.17-.25l.02-.64v-3.65l-.02-2.5v-.66c0-1.21,.74-1.3,.96-1.3h.05l1.15-.1h1.73s.98,.01,1.94,.68c1.61,1.11,1.94,3.15,1.94,4.66,0,.01-.05,.95-.5,1.88-.42,.85-1.27,1.88-2.98,1.88m19.98,0h-4.14s-.17,0-.17-.25l.02-.64v-3.65l-.02-2.5v-.66c0-1.21,.74-1.3,.97-1.3h.04l1.15-.1h1.73s.98,.01,1.95,.68c1.61,1.11,1.94,3.15,1.94,4.66,0,.01-.05,.95-.5,1.88-.42,.85-1.27,1.88-2.98,1.88M87.84,1.4l3.5-.37h0s0,0,0,0c0,0,.16-.16,.11-.27-.03-.06-.11-.09-.25-.09h-13.1c-.14,0-.22,.03-.25,.09-.04,.11,.11,.26,.11,.27h0s3.5,.38,3.5,.38c1.12,.12,1.01,1.37,1.01,1.39V19.37s.11,1.27-1.01,1.39l-1.84,.2h-.38c-.54,0-.95-.16-1.24-.46-.4-.42-.39-1-.39-1v-3.98c0-2.36-1.27-3.6-2.34-4.23-.72-.41-1.51-.69-2.33-.8-.03-.01-.09-.05-.09-.08,0-.04,.09-.12,.78-.17,.01,0,1.24-.11,2.46-.78,1.12-.62,2.46-1.86,2.46-4.25,0-.01-.1-1.17-1.06-2.31-.56-.67-1.31-1.2-2.21-1.58-1.13-.48-2.51-.72-4.11-.72h-12.12c-.1,.04-.14,.07-.14,.12,0,.09,.22,.14,.27,.15l2.42,.22s.01,0,.04,0c.23,0,.97,.09,.97,1.31v2s0,.06,0,.06v14.92s.11,1.27-1.01,1.39l-1.83,.19h-.43c-.54,0-.96-.16-1.24-.46-.4-.43-.39-1-.39-1v-3.98c0-2.36-1.27-3.6-2.33-4.23-.72-.41-1.51-.69-2.33-.8-.03-.01-.09-.05-.09-.08,0-.04,.09-.12,.78-.17,.86-.1,1.69-.37,2.45-.78,1.12-.62,2.46-1.86,2.46-4.25,0-.01-.1-1.17-1.06-2.31-.56-.67-1.31-1.2-2.21-1.59-1.13-.48-2.51-.72-4.11-.72h-17.61c-.57,0-.65,.07-.67,.12-.02,.08,.13,.15,.17,.16h0c1.24,0,2.23,.37,2.95,1.11,1.27,1.29,1.26,3.29,1.26,3.31V14c0,6.82-4.82,7.16-5.78,7.16-.11,0-.18,0-.18,0-1.26,0-2.29-.42-3.07-1.26-1.87-2.02-1.63-5.82-1.62-5.86V2.39c0-1.22,.74-1.32,.97-1.32h.05s2.41-.22,2.41-.22h0s.12-.06,.1-.13c-.01-.06-.11-.14-.84-.14H0V9.55c0,.09,.05,.26,.22,.27h.01s.11-.04,.17-.26c.05-.17,.04-.18,.03-.19h0s-.01,0-.01,0c.06-.38,.37-2.27,1.04-4.13,.44-1.22,.94-2.19,1.5-2.88,.7-.87,1.48-1.31,2.32-1.31,.05,0,.09,0,.14,0h2V19.37s.11,1.27-1.01,1.39l-3.5,.37h0s0,0,0,0c0,0-.16,.16-.11,.27,.03,.06,.11,.09,.25,.09h13.1c.14,0,.22-.03,.25-.09,.04-.11-.11-.26-.11-.27h0s-3.5-.38-3.5-.38c-1.12-.12-1.01-1.38-1.01-1.39V1.04h2c.89-.05,1.72,.39,2.45,1.3,.56,.7,1.06,1.66,1.5,2.89,.67,1.87,.98,3.76,1.04,4.13h-.01s0,0,0,0c0,.01-.01,.02,.03,.19,.06,.22,.13,.27,.17,.27,0,0,.01,0,.01,0,.17,0,.22-.18,.22-.27V.86l2.36,.21h.04c.23,0,.97,.09,.97,1.31V13.94s-.12,2.98,1.99,5.2c1.57,1.66,3.94,2.49,7.04,2.49h.01c.17,0,1.71-.03,3.21-.98,.88-.56,1.59-1.34,2.07-2.26,.62-1.17,.93-2.64,.93-4.35V6.37c0-2.1,.44-3.61,1.31-4.5,.52-.53,1.24-.84,1.98-.84,.21,0,.33,.02,.34,.02,.33,0,.61,.11,.83,.34,.53,.55,.5,1.61,.5,1.62V19.37s.11,1.27-1.01,1.39l-3.5,.37h0s0,0,0,0c0,0-.16,.16-.11,.27,.03,.06,.11,.09,.25,.09h13.1c.14,0,.22-.03,.25-.09,.05-.11-.1-.26-.11-.27h0s-3.5-.38-3.5-.38c-1.12-.12-1.01-1.38-1.01-1.39V11l-.02-.12c0-.37,.31-.4,.4-.4h3.85s.62,.04,1.22,.59c.56,.51,1.23,1.58,1.23,3.78v3.56s.01,.78,.38,1.54c.62,1.28,1.73,1.54,2.56,1.54h14.66c.14,0,.22-.03,.25-.09,.04-.11-.11-.26-.11-.27h0s-3.51-.38-3.51-.38c-1.12-.12-1.01-1.38-1.01-1.39V11l-.02-.12c0-.37,.31-.4,.4-.4h3.85s.62,.04,1.23,.59c.56,.51,1.23,1.58,1.23,3.78v3.56s.01,.78,.38,1.54c.62,1.28,1.73,1.54,2.56,1.54h14.62c.14,0,.22-.03,.25-.09,.05-.11-.11-.26-.11-.27h0s-3.5-.38-3.5-.38c-1.12-.12-1.01-1.38-1.01-1.39V2.79s-.11-1.27,1.01-1.39"/>
  </g>
  <g clip-path="url(#c)">
    <path d="M174.9,21.11l-3.5-.37c-1.12-.12-1.06-1.38-1.05-1.39l-.05-16.59s-.1-1.34,1.1-1.38l3.5-.37s.11-.03,.13-.19c.02-.15-.16-.18-.16-.18h-13.24c-.14,0-.23,.06-.23,.13-.03,.21,.24,.26,.24,.26l3.37,.35c1.12,.12,1.01,1.37,1.01,1.39V19.34s.11,1.27-1.01,1.39l-3.5,.37h0s-.16,.16-.11,.27c.02,.06,.11,.09,.25,.09h6.52s6.63,0,6.63,0c.14,0,.22-.03,.25-.09,.04-.11-.11-.26-.11-.27h0Z"/>
  </g>
  <g clip-path="url(#d)">
    <path d="M195.7,11.13c-.01-.1-.32-.14-.32-.14h-9.52s-.54-.01-.59,.14c-.04,.15,.21,.21,.21,.21,1.47,.07,3.08,.11,3.06,2.76-.01,2.03,.16,4.22-1.35,5.82-.94,1-2.38,1.45-3.72,1.44-4.94-.06-5.44-6.43-5.44-10.37s.85-10.22,5.66-10.3c4.44-.08,6.94,4.11,7.32,7.84,0,0,.06,.14,.16,.09,.1-.05,.09-.49,.09-.49,0,0,0-7.5,0-7.68,0-.18-.13-.19-.13-.19-.13,0-.12,.14-.12,.14-.05,.22-.02,2.3-1.08,2.05-.55-.13-1.55-.78-1.99-1.06-1.25-.81-2.79-1.22-4.29-1.22-5.6,0-10.11,5.54-10.11,10.92s4.32,10.76,9.79,10.76c1.31,0,2.72-.31,3.85-.97,.47-.25,.85-.53,1.25-.88,.44-.38,1.29-1.18,1.85-1.28,1.59-.3,1.65,2.25,1.72,2.94,.03,.1,.08,.15,.17,.15,.14,0,.15-.5,.15-.5v-7.22c0-.5,0-1.19,.18-1.66,.63-.98,2.08-1.05,2.99-1.11,.07,0,.21-.09,.2-.19"/>
  </g>
  <g clip-path="url(#e)">
    <path d="M216.08,.43h-8.3c-.45,0-.41,.14-.41,.14,0,0,.03,.12,.53,.15,.49,.02,2.13,.03,3.06,1.44,.93,1.41,.78,4.66,.78,4.66v9.27c0,.12-.16,.17-.23,.07L200.64,.51s-.06-.05-.1-.06h-6.38s-.33-.01-.42,.1c-.09,.11,.23,.15,.35,.16,.12,0,2.15,.03,3.17,1.58,0,0,.94,1.32,.85,4.41-.08,3.09,0,9.99,0,9.99,0,0-.05,2.48-1.73,3.69-.65,.4-1.38,.62-2.14,.65,0,0-.49-.04-.53,.17-.04,.2,1.48,.14,1.48,.14h7.27s.24,0,.31-.06c.07-.07,.06-.18-.07-.22,0,0-.05-.03-.21-.02-.16,.01-.98,0-1.45-.19-.47-.18-1.76-.81-2.31-2.63,0,0-.26-.82-.28-1.67V5.33c0-.12,.16-.18,.23-.07l11.36,16.27c.07,.1,.18,.16,.3,.16h1.66c.07,0,.13-.06,.13-.13V7.58s-.15-2.87,.31-4.25c.46-1.38,1.41-2.04,1.41-2.04,.87-.62,2.32-.58,2.32-.58,0,0,.28,0,.3-.14,.02-.14-.38-.15-.38-.15"/>
  </g>
  <g clip-path="url(#f)">
    <path d="M161.78,14.99c0-1.69-.75-3.32-2.1-4.35-1.35-1.03-2.53-1.55-4.13-2.02l-2.84-.78c-1.88-.53-4.2-.93-4.2-3.3s1.99-3.73,4.18-3.73c1.97,0,3.55,.73,4.77,2.26,2.19,2.74,2.33,5.62,2.33,5.62,0,.31,.05,.4,.19,.4s.13-.74,.13-.74V.41s-.01-.1-.03-.19c-.01-.09-.05-.22-.16-.22s-.11,.21-.11,.21V.48c-.06,.59-.25,1.95-.91,1.95-.28,0-.96-.43-1.18-.58-1.63-.97-3.13-1.6-5.04-1.6-3.38,0-7.1,2.47-7.1,6.13,0,1.53,.78,3.07,2,4,1.25,.97,3.25,1.5,4.76,1.91l2.5,.66c2.13,.56,4.17,1.24,4.17,3.8,0,2.72-2.07,4.5-4.6,4.67,.07,0-.73,0-1.21-.05-1.95-.21-3.73-1.19-4.95-2.73-2.19-2.74-2.44-5.58-2.44-5.58,0-.31-.05-.4-.19-.4s-.13,.74-.13,.74v7.94s.01,.1,.03,.19c.01,.09,.05,.22,.16,.22s.11-.21,.11-.21v-.27c.06-.59,.25-1.95,.91-1.95,.28,0,.96,.42,1.18,.58,1.63,.97,3.51,1.88,5.42,1.99,.5,.03,.69,.06,1.1,.03h0c3.73-.18,7.37-3,7.37-6.94"/>
  </g>
  <g clip-path="url(#g)">
    <path d="M119.69,17.98c-1.13,2.44-3.38,3-5.88,3s-2.83-.09-2.83-2.69l.03-14.71c0-2.54,.43-2.47,2.77-2.47,2.22,0,4.44,.56,5.63,2.6,1.13,1.91,1.38,5.29,1.38,7.45s-.19,4.88-1.1,6.82m1.66-14.89c-2.44-2.13-4.97-2.47-8.1-2.47h-9.82s-.32,0-.32,.13c0,.14,.32,.18,.32,.18,.69,.06,1.47,.12,2.17,.18,1.36,.22,1.21,.45,1.27,2.58v14.74c0,1.22,.08,2.44-1.25,2.57-.86,.08-1.5,.12-2.19,.18,0,0-.39,.03-.39,.18,0,.15,.39,.13,.39,.13h9.61c3.47,0,6.13-.25,8.76-2.72,2.07-1.97,3.16-4.76,3.16-7.6,0-3.1-1.22-6.04-3.6-8.07"/>
  </g>
  <g clip-path="url(#h)">
    <path d="M142.91,13.16c-.19,.02-.17,.23-.17,.23,0,.4-.11,1.19-.11,1.19-.16,1.47-1.33,3.21-1.33,3.21,0,0-1.2,1.76-2.72,2.57-1.52,.81-3.66,.77-3.66,.77,0,0-.87,.02-2.14-.07-1.27-.08-1.23-1.63-1.23-1.63V10.63c1.1-.07,2.04,.1,2.04,.1,1.3,.23,2.15,1.01,2.15,1.01,0,0,.84,.8,1.05,1.64,.21,.83,.17,1.26,.19,1.37,.02,.11,.02,.27,.17,.26,.15-.01,.14-.32,.14-.32v-5.2s0-3.1,0-3.33c0-.23-.1-.25-.1-.25,0,0-.18-.05-.19,.2,0,.26-.07,.79-.07,.79,0,0-.1,1.47-1.4,2.44-1.3,.97-2.85,.94-2.85,.94h-1.13V5.08l.04-2.26s.07-.91,.53-1.17c.46-.26,1.43-.31,1.43-.31,0,0,3.04-.28,4.61,.47,1.57,.75,2.04,1.38,2.63,2.25,.59,.87,1.01,2.13,1.17,2.61,.16,.48,.31,1.6,.31,1.6,0,0,0,.27,.15,.27s.13-.26,.13-.26V.77h-18.52c-.48,0-.39,.15-.39,.15,.04,.2,1.48,.26,1.48,.26,0,0,1.2,.03,1.78,.24,.58,.21,.56,1.12,.56,1.12v15.27s.03,1.54-.14,2.33c-.17,.78-.57,.88-.79,.96-.22,.07-2.15,.2-2.15,.2,0,0-.79,0-.79,.15s.3,.17,.3,.17l18.93-.02c.14,0,.15-.12,.15-.12l.07-7.9c.03-.4-.13-.41-.13-.41"/>
  </g>
</svg>