<svg xmlns="http://www.w3.org/2000/svg" width="187" height="43" viewBox="0 0 187 43"><g><g><path fill="#fff" d="M105.15 19.313h-8.443c-.014 0-.34-.009-.34-.507l.041-1.3V10.06l-.04-5.105v-1.34c0-2.467 1.507-2.657 1.967-2.657.057 0 .09.002.097.002l2.348-.213h3.529c.02 0 2.008.03 3.97 1.386 3.282 2.265 3.973 6.425 3.973 9.516 0 .02-.097 1.941-1.02 3.837-.846 1.745-2.59 3.827-6.083 3.827m40.794 0h-8.442c-.013 0-.338-.01-.338-.507l.041-1.3V10.06l-.041-5.105v-1.34c0-2.467 1.507-2.657 1.972-2.657.053 0 .085.002.093.002l2.349-.213h3.525c.022 0 2.01.03 3.975 1.386 3.28 2.265 3.968 6.425 3.968 9.516 0 .02-.093 1.941-1.015 3.837-.849 1.745-2.593 3.827-6.086 3.827M179.31 1.651l7.138-.758.016-.002.008-.01c.013-.014.322-.325.229-.55-.052-.125-.222-.19-.507-.19h-26.739c-.286 0-.458.065-.511.19-.09.225.219.538.232.55l.01.01 7.15.76c2.289.247 2.07 2.808 2.068 2.838v33.849c.002.025.22 2.585-2.068 2.834l-3.758.399-.77.022c-1.1-.027-1.95-.35-2.527-.963-.821-.867-.797-2.03-.797-2.041v-8.117c0-4.823-2.59-7.357-4.767-8.636-2.291-1.349-4.618-1.619-4.753-1.632-.066-.029-.189-.105-.177-.166.01-.074.191-.252 1.6-.348.023-.001 2.534-.226 5.012-1.602 2.288-1.268 5.018-3.8 5.015-8.67 0-.024-.211-2.385-2.17-4.714-1.15-1.367-2.669-2.454-4.514-3.234C151.428.493 148.605 0 145.34 0h-24.724l-.012.001c-.2.07-.292.147-.287.234.01.18.454.284.547.306l4.939.448s.029-.004.086-.004c.463 0 1.97.193 1.97 2.685l.002 4.081-.017.121v30.466c.004.025.223 2.585-2.065 2.834l-3.732.396-.881.025c-1.1-.027-1.952-.35-2.528-.963-.818-.869-.795-2.03-.795-2.041v-8.117c0-4.823-2.59-7.357-4.763-8.636-2.297-1.349-4.624-1.619-4.758-1.632-.066-.029-.19-.105-.177-.166.011-.074.188-.252 1.598-.348.024-.001 2.535-.226 5.012-1.602 2.29-1.268 5.018-3.8 5.018-8.67 0-.024-.212-2.385-2.171-4.714-1.152-1.367-2.667-2.454-4.514-3.234C110.785.493 107.963 0 104.702 0H68.748c-1.17 0-1.335.144-1.358.253-.032.16.275.3.338.325l.014.005c2.524 0 4.545.759 6.018 2.256 2.588 2.636 2.568 6.71 2.568 6.752v17.782c0 13.918-9.831 14.623-11.803 14.623-.232 0-.364-.008-.368-.008-2.573 0-4.68-.866-6.262-2.573-3.818-4.122-3.323-11.878-3.316-11.958V3.67c0-2.492 1.507-2.685 1.97-2.685.055 0 .085.004.095.004L61.573.54l.013-.004c.023-.012.246-.121.215-.257-.025-.119-.233-.28-1.704-.28H.001v18.298c0 .188.093.54.452.546.008.002.018.005.028.005.09 0 .223-.095.348-.54.097-.34.082-.363.067-.382L.88 17.91H.852c.119-.775.748-4.63 2.117-8.44.894-2.489 1.927-4.469 3.066-5.89C7.456 1.812 9.048.915 10.765.915c.094 0 .185 0 .278.006h4.076v37.418c.004.025.22 2.585-2.065 2.834l-7.14.759-.013.003-.009.01c-.013.013-.321.325-.23.547.051.128.224.193.51.193H32.91c.285 0 .455-.065.51-.193.089-.222-.217-.534-.23-.548l-.012-.009-7.153-.762c-2.286-.25-2.067-2.809-2.065-2.838V.92h4.08c1.825-.096 3.513.797 5.006 2.662 1.14 1.42 2.17 3.4 3.066 5.89 1.371 3.809 2 7.664 2.117 8.439h-.01l-.023.002-.012.014c-.013.019-.031.042.065.382.128.445.262.54.35.54a.09.09 0 0 0 .03-.005c.357-.006.45-.358.45-.546V.553l4.81.436s.034-.004.089-.004c.46 0 1.97.193 1.97 2.685v23.588c-.004.059-.241 6.08 4.053 10.615 3.196 3.382 8.035 5.091 14.379 5.091h.022c.348 0 3.48-.056 6.559-2.007 1.784-1.133 3.202-2.684 4.218-4.617 1.259-2.394 1.896-5.383 1.896-8.883V11.788c0-4.289.903-7.378 2.682-9.185a5.658 5.658 0 0 1 4.05-1.705c.419 0 .682.048.693.048.682 0 1.248.232 1.687.686 1.08 1.131 1.019 3.285 1.019 3.31v33.396c.002.025.222 2.585-2.066 2.834l-7.142.759-.01.003-.012.01c-.013.013-.32.325-.231.547.054.13.226.193.51.193h26.74c.286 0 .456-.064.508-.193.093-.222-.216-.534-.23-.548l-.008-.009-7.153-.762c-2.288-.25-2.068-2.809-2.066-2.838V21.251l-.042-.248c0-.75.634-.808.828-.808h7.867c.014 0 1.267.078 2.499 1.21 1.142 1.047 2.505 3.234 2.505 7.715v7.27c0 .016.03 1.592.78 3.144 1.259 2.603 3.536 3.15 5.224 3.15h29.93c.284 0 .454-.064.51-.193.09-.222-.22-.534-.232-.548l-.007-.009-7.158-.762c-2.286-.25-2.066-2.809-2.064-2.838V21.251l-.041-.248c0-.75.631-.808.827-.808h7.867c.015 0 1.267.078 2.503 1.21 1.14 1.047 2.503 3.234 2.503 7.715v7.27c0 .016.03 1.592.78 3.144 1.26 2.603 3.534 3.15 5.222 3.15h29.847c.285 0 .455-.064.507-.193.093-.222-.216-.534-.23-.548l-.007-.009-7.154-.762c-2.287-.25-2.068-2.809-2.066-2.838V4.484c-.002-.025-.221-2.586 2.066-2.833"/></g></g></svg>